PathFileType	4	(X/Y/Z)	G:\マイドライブ\biomec\experimentalData\240725\CJ3.trc
DataRate	CameraRate	NumFrames	NumMarkers	Units	OrigDataRate	OrigDataStartFrame	OrigNumFrames
200.00	200.00	      4	52	mm	200.00	1251	      1667
Frame#	Time	handR			wrRI			wrRO			elbRI			elbRO			shRF			shRU			shRB			handL			wrLI			wrLO			elbLI			elbLO			shLF			shLU			shLB			toeR			baRI			baRO			heelR			anRI			anRO			knRI			knRO			troR			toeL			baLI			baLO			heelL			anLI			anLO			knLI			knLO			troL			head			earR			earL			clav			c7			ribR			ribL			xiph			ASISR			ASISL			PSISR			PSISL			t8			t11			L1			L3			LS			COX			
		X1	Y1	Z1	X2	Y2	Z2	X3	Y3	Z3	X4	Y4	Z4	X5	Y5	Z5	X6	Y6	Z6	X7	Y7	Z7	X8	Y8	Z8	X9	Y9	Z9	X10	Y10	Z10	X11	Y11	Z11	X12	Y12	Z12	X13	Y13	Z13	X14	Y14	Z14	X15	Y15	Z15	X16	Y16	Z16	X17	Y17	Z17	X18	Y18	Z18	X19	Y19	Z19	X20	Y20	Z20	X21	Y21	Z21	X22	Y22	Z22	X23	Y23	Z23	X24	Y24	Z24	X25	Y25	Z25	X26	Y26	Z26	X27	Y27	Z27	X28	Y28	Z28	X29	Y29	Z29	X30	Y30	Z30	X31	Y31	Z31	X32	Y32	Z32	X33	Y33	Z33	X34	Y34	Z34	X35	Y35	Z35	X36	Y36	Z36	X37	Y37	Z37	X38	Y38	Z38	X39	Y39	Z39	X40	Y40	Z40	X41	Y41	Z41	X42	Y42	Z42	X43	Y43	Z43	X44	Y44	Z44	X45	Y45	Z45	X46	Y46	Z46	X47	Y47	Z47	X48	Y48	Z48	X49	Y49	Z49	X50	Y50	Z50	X51	Y51	Z51	X52	Y52	Z52	

1251	6.250	586.26733	753.98505	1046.04480	549.82092	693.03040	1012.93671	504.94305	732.74921	1054.31921	404.16406	584.54230	1182.05408	466.04715	532.94580	1184.90234	610.19458	713.48517	1397.98840	558.52747	682.55206	1430.68347	502.33096	689.00165	1401.15674	611.46478	1029.53271	1065.92175	579.56506	1119.14282	1062.27917	552.93695	1068.55713	1113.13098	432.96756	1219.10046	1222.99463	499.15384	1269.83435	1233.26123	618.00653	1035.48657	1408.32996	567.56287	1067.54895	1442.21790	502.20300	1056.55371	1402.00195	658.20990	736.68781	47.12087	581.55035	794.03809	34.18148	544.97534	672.64636	40.79697	374.84189	782.71399	40.53576	465.18317	808.99963	112.55247	436.60452	718.41571	104.18660	524.62958	828.26398	468.61627	527.61774	723.02618	474.85687	537.32874	733.36890	875.41235	687.30676	1060.28137	51.43202	610.78107	1020.16571	57.05979	595.26471	1131.33240	46.31742	402.82541	1083.66553	56.43512	501.78250	1034.00000	140.86353	480.84854	1126.23096	120.90638	598.36603	995.21906	480.59714	604.35205	1102.61414	492.23776	558.81982	1078.00720	883.65503	548.86462	886.86609	1706.86780	640.54718	798.09473	1567.42261	639.89209	956.44904	1556.56641	638.75378	877.83380	1387.83630	524.41943	880.20502	1475.13916	594.67578	789.35193	1092.26294	601.92175	999.61194	1099.10950	657.27594	882.24823	1228.11682	606.88177	791.02112	966.05908	610.67566	1011.56830	989.43500	437.01041	848.07385	998.65894	444.09537	967.97040	1007.85645	441.91885	893.51929	1272.33569	441.94714	899.52155	1145.23096	447.52206	906.07660	1084.80981	443.74112	905.96631	1035.90295	430.29453	909.22321	995.96490	406.59378	916.85071	891.59973	
1252	6.255	585.59772	754.62292	1045.77051	549.01221	693.85016	1012.65063	504.22122	733.73035	1054.18176	403.82925	585.65063	1181.96021	465.43918	533.75665	1184.66064	610.48596	714.06738	1397.38269	558.92120	683.08215	1430.31494	502.66589	689.66565	1400.93616	611.24756	1030.46289	1065.91345	579.58240	1120.01880	1062.36865	552.98407	1069.37122	1113.23950	434.14761	1220.32080	1223.86951	500.30304	1270.91980	1233.95740	619.01947	1035.86719	1408.23767	568.63983	1067.89392	1442.38611	503.27744	1057.24939	1402.33337	658.25458	736.74170	46.97821	581.27667	794.23547	34.26202	544.96820	672.54919	40.76283	374.85059	782.71045	40.52903	465.25293	809.06445	112.52017	436.61349	718.47028	104.22983	525.59100	828.69055	468.40894	528.17029	723.41089	474.73074	536.45679	734.23633	875.29089	686.20636	1059.21863	51.96517	609.11255	1021.25348	58.62675	595.97028	1132.52209	46.36306	402.48764	1089.04919	58.71647	501.31021	1037.84155	142.68562	482.74188	1131.15662	123.61789	600.92487	997.28058	480.75119	608.15753	1104.38318	492.79666	559.26343	1078.84656	883.96771	550.89526	886.95624	1706.77197	641.53491	796.71893	1566.84473	641.67963	956.45056	1556.08838	639.30701	878.14679	1387.49890	525.27325	880.64490	1475.08716	594.31470	789.97974	1092.01831	601.68524	1000.40143	1098.99744	657.38629	882.78937	1227.68152	606.15198	791.69519	965.96881	610.43964	1012.19153	989.49518	436.49808	848.95734	998.74847	443.84268	968.79663	1007.89893	442.05988	894.48932	1272.70337	441.83386	900.37634	1145.47009	447.35788	906.85620	1085.07886	443.25848	907.04071	1036.12598	429.86203	910.15247	996.06207	406.18335	917.84155	891.66437	
1253	6.260	585.07159	755.13080	1045.55847	548.02161	694.85742	1012.39026	503.71301	734.58752	1053.97314	403.26178	586.72662	1181.99268	464.61084	534.59161	1184.50659	610.79303	714.60309	1396.78113	559.26080	683.69244	1429.92932	502.84500	690.28851	1400.68347	611.06891	1031.27710	1065.89270	579.63727	1120.84912	1062.48364	552.99280	1070.23975	1113.28174	434.98004	1221.35291	1224.42188	501.55121	1271.64087	1234.43701	619.14240	1036.11072	1407.93579	569.65100	1068.45105	1442.55286	504.29321	1057.85242	1402.66699	658.40570	736.89349	46.87555	581.29932	794.21643	34.26261	544.97186	672.51855	40.68200	374.85022	782.71918	40.51246	465.26596	809.12518	112.43105	436.61951	718.54529	104.24664	526.34613	829.05579	468.08362	528.83710	723.79596	474.57629	535.61829	734.98187	875.20526	685.10730	1058.28491	52.35653	607.55499	1022.56110	60.29366	596.50598	1133.50562	46.43814	402.15808	1094.77039	60.81367	500.58490	1041.80029	144.26108	483.57816	1134.97888	124.85287	603.73700	999.01776	481.27158	612.16077	1106.15051	493.59079	559.85291	1079.63879	883.82959	552.93701	887.21631	1706.71033	642.30969	796.65320	1566.25830	643.43384	956.26862	1555.70959	639.59790	878.62878	1386.98206	525.74048	881.21796	1475.28015	593.84406	790.72510	1091.73938	601.52246	1001.07446	1098.85693	657.51971	883.30151	1227.24341	605.38367	792.35339	965.77606	610.26996	1012.74164	989.49054	435.94681	849.90729	998.92328	443.62018	969.94293	1007.95972	442.29529	895.33923	1272.98267	441.68637	901.39355	1145.62720	447.11853	907.83917	1085.21301	442.88690	907.89825	1036.27087	429.36172	911.46204	996.21185	405.86624	918.92792	891.67493	
1254	6.265	584.52881	755.92181	1045.21252	547.40881	695.50037	1012.17719	503.12201	735.55640	1053.76917	402.60175	587.66742	1182.03333	463.77142	535.62299	1184.18335	611.06866	715.17206	1396.06970	559.62024	684.27002	1429.50330	503.04196	690.95465	1400.38635	610.91998	1031.83203	1065.73389	579.68225	1121.63696	1062.51196	552.94885	1071.05127	1113.33472	435.98029	1222.54175	1225.04785	502.60364	1272.68677	1234.73438	620.08160	1036.66223	1407.81335	570.74890	1069.01721	1442.61279	505.24017	1058.66711	1402.84619	658.49219	736.99463	46.75130	581.59277	794.01636	34.18103	544.95343	672.46210	40.67650	374.25854	782.45148	40.58823	465.36115	809.20752	112.31697	436.64319	718.59711	104.26984	527.32245	829.59387	467.82407	529.56195	724.23724	474.48593	534.85278	735.93805	875.09906	684.08099	1057.49805	52.91451	605.78503	1024.67676	61.12865	597.09009	1134.71204	46.40568	401.88733	1100.48303	63.19452	499.93958	1045.92932	146.22865	484.75903	1138.97498	125.99864	606.38110	999.64154	481.74078	616.23853	1107.87585	494.15445	560.30481	1080.51770	883.96777	554.87970	887.73901	1706.57190	643.08679	796.70697	1565.66541	645.20361	956.26935	1555.31677	640.12903	879.21948	1386.48889	526.66827	881.94952	1475.19702	593.35046	791.57239	1091.43091	601.49146	1001.94800	1098.72522	657.58398	883.94489	1226.71399	604.60107	792.87604	965.51031	610.16815	1013.19879	989.55627	435.30954	851.15967	999.03326	443.34741	971.16882	1008.06122	442.58960	896.21710	1273.18286	441.63583	902.24585	1145.81763	446.92502	908.74707	1085.21472	442.68497	908.90540	1036.37622	429.10889	912.35236	996.23572	405.60327	919.98419	891.61591	
